<svg xmlns="http://www.w3.org/2000/svg" viewBox="0 0 160 40" fill="none" role="img" aria-label="Ojiva AI">
  <!-- Hexagonal network mark -->
  <polygon points="18,4 30,11 30,25 18,32 6,25 6,11" stroke="#2563eb" stroke-width="2" fill="none"/>
  <circle cx="18" cy="4" r="2" fill="#2563eb"/>
  <circle cx="30" cy="11" r="2" fill="#2563eb"/>
  <circle cx="30" cy="25" r="2" fill="#2563eb"/>
  <circle cx="18" cy="32" r="2" fill="#2563eb"/>
  <circle cx="6" cy="25" r="2" fill="#2563eb"/>
  <circle cx="6" cy="11" r="2" fill="#2563eb"/>
  <circle cx="18" cy="18" r="3" fill="#2563eb"/>
  <line x1="18" y1="4" x2="18" y2="18" stroke="#06b6d4" stroke-width="1.5"/>
  <line x1="30" y1="11" x2="18" y2="18" stroke="#06b6d4" stroke-width="1.5"/>
  <line x1="30" y1="25" x2="18" y2="18" stroke="#06b6d4" stroke-width="1.5"/>
  <line x1="18" y1="32" x2="18" y2="18" stroke="#06b6d4" stroke-width="1.5"/>
  <line x1="6" y1="25" x2="18" y2="18" stroke="#06b6d4" stroke-width="1.5"/>
  <line x1="6" y1="11" x2="18" y2="18" stroke="#06b6d4" stroke-width="1.5"/>
  <!-- Wordmark -->
  <text x="42" y="26" font-family="Inter,-apple-system,sans-serif" font-size="18" font-weight="800" fill="#0f172a" letter-spacing="-0.5">Ojiva</text>
  <text x="106" y="26" font-family="Inter,-apple-system,sans-serif" font-size="18" font-weight="800" fill="#2563eb" letter-spacing="-0.5">AI</text>
</svg>
